<?xml version="1.0" encoding="utf-8"?>
<!-- Generator: Adobe Illustrator 15.0.0, SVG Export Plug-In . SVG Version: 6.00 Build 0)  -->
<!DOCTYPE svg PUBLIC "-//W3C//DTD SVG 1.1//EN" "http://www.w3.org/Graphics/SVG/1.1/DTD/svg11.dtd">
<svg version="1.1" id="图层_1" xmlns="http://www.w3.org/2000/svg" xmlns:xlink="http://www.w3.org/1999/xlink" x="0px" y="0px"
	 width="512px" height="512px" viewBox="0 0 512 512" enable-background="new 0 0 512 512" xml:space="preserve">
<radialGradient id="SVGID_1_" cx="751.7861" cy="55945.5703" r="159.8184" gradientTransform="matrix(0.9182 0 0 0.1318 -382.8201 -7062.6499)" gradientUnits="userSpaceOnUse">
	<stop  offset="0" style="stop-color:#B4B4B4"/>
	<stop  offset="1" style="stop-color:#FFFFFF"/>
</radialGradient>
<path fill="url(#SVGID_1_)" d="M467.927,313.537c0,11.904-71.844,21.546-160.456,21.546c-88.616,0-160.458-9.642-160.458-21.546
	c0-11.885,71.844-21.534,160.458-21.534C396.083,292.003,467.927,301.652,467.927,313.537z"/>
<path fill="#1C75BC" d="M512.998,442.154c0,39.671-32.172,71.879-71.896,71.879H74.214c-39.721,0-71.925-32.207-71.925-71.879V75.23
	c0-39.738,32.204-71.908,71.925-71.908h366.891C480.827,3.322,513,35.495,513,75.23v366.924H512.998L512.998,442.154z"/>
<path id="friends_list_1_" fill="#FFFFFF" d="M314.214,307.993c-0.795-3.444-6.176-26.975-20.858-26.975h-30.907l3.07-16.15
	c13.403-5.172,25.161-9.721,33.759-25.388h37.335c10.263,0,13.452,15.8,13.452,15.8l11.108,52.713H314.214z M308.575,225.088
	c-1.789,0-3.543-0.242-5.282-0.579c6.971-15.722,11.046-34.678,11.046-55.083c0-43.023-13.627-50.25-24.69-67.936
	c-30.065,14.013,60.417-41.515,60.417,60.413C350.064,196.791,331.492,225.088,308.575,225.088z M301.674,174.675
	c0,43.722-23.275,79.152-51.979,79.152c-28.706,0-51.969-35.43-51.969-79.152c0-43.723,23.263-79.151,51.969-79.151
	C278.398,95.524,301.674,130.952,301.674,174.675z M241.167,117.046c-15.926,8.658,3.58,39.55-31.341,57.629
	c0,33.534,17.849,60.722,39.868,60.722c22.024,0,39.868-27.191,39.868-60.722C269.267,149.18,235.173,160.943,241.167,117.046z
	 M211.647,99.994c-11.623,17.807-26.727,30.853-26.727,69.432c0,20.639,4.181,46.656,11.295,62.488
	c-0.254,0.013-0.503,0.066-0.769,0.066c-22.907,0-41.478-35.187-41.478-70.077C153.97,65.573,245.364,110.384,211.647,99.994z
	 M169.685,239.479h30.298c10.093,18.387,18.002,24.109,34.362,27.484l2.11,14.056h-27.017c-14.681,0-19.637,23.53-20.365,26.975
	h-45.847l13.333-52.713C156.56,255.277,159.423,239.479,169.685,239.479z M217.419,287.495h67.398
	c12.861,0,16.855,19.788,16.855,19.788l13.918,62.821H184.266l16.703-62.821C200.972,307.279,204.56,287.495,217.419,287.495z"/>
</svg>
